<svg id="_4Hands" data-name="4Hands" xmlns="http://www.w3.org/2000/svg" xmlns:xlink="http://www.w3.org/1999/xlink" width="450" height="450" viewBox="0 0 450 450">
  <defs>
    <clipPath id="clip-path">
      <rect id="Rectangle_5" data-name="Rectangle 5" width="450" height="450" fill="none"/>
    </clipPath>
    <filter id="Path_32" x="207.415" y="228.822" width="182.665" height="170.126" filterUnits="userSpaceOnUse">
      <feOffset dy="3" input="SourceAlpha"/>
      <feGaussianBlur stdDeviation="5" result="blur"/>
      <feFlood flood-opacity="0.349"/>
      <feComposite operator="in" in2="blur"/>
      <feComposite in="SourceGraphic"/>
    </filter>
    <filter id="Path_2044" x="332.227" y="348.225" width="95.974" height="96.442" filterUnits="userSpaceOnUse">
      <feOffset dy="3" input="SourceAlpha"/>
      <feGaussianBlur stdDeviation="5" result="blur-2"/>
      <feFlood flood-opacity="0.349"/>
      <feComposite operator="in" in2="blur-2"/>
      <feComposite in="SourceGraphic"/>
    </filter>
    <filter id="Path_34" x="301.591" y="314.818" width="95.811" height="99.384" filterUnits="userSpaceOnUse">
      <feOffset dy="3" input="SourceAlpha"/>
      <feGaussianBlur stdDeviation="5" result="blur-3"/>
      <feFlood flood-opacity="0.349"/>
      <feComposite operator="in" in2="blur-3"/>
      <feComposite in="SourceGraphic"/>
    </filter>
    <filter id="Path_43" x="281.203" y="360.375" width="87.18" height="53.827" filterUnits="userSpaceOnUse">
      <feOffset dy="3" input="SourceAlpha"/>
      <feGaussianBlur stdDeviation="5" result="blur-4"/>
      <feFlood flood-opacity="0.349"/>
      <feComposite operator="in" in2="blur-4"/>
      <feComposite in="SourceGraphic"/>
    </filter>
    <filter id="Path_45" x="339.287" y="356.793" width="150.246" height="155.256" filterUnits="userSpaceOnUse">
      <feOffset dy="3" input="SourceAlpha"/>
      <feGaussianBlur stdDeviation="5" result="blur-5"/>
      <feFlood flood-opacity="0.349"/>
      <feComposite operator="in" in2="blur-5"/>
      <feComposite in="SourceGraphic"/>
    </filter>
    <filter id="Path_49" x="336.192" y="110.876" width="55.935" height="69.864" filterUnits="userSpaceOnUse">
      <feOffset dy="3" input="SourceAlpha"/>
      <feGaussianBlur stdDeviation="3" result="blur-6"/>
      <feFlood flood-opacity="0.349"/>
      <feComposite operator="in" in2="blur-6"/>
      <feComposite in="SourceGraphic"/>
    </filter>
    <filter id="Path_51" x="219.76" y="72.906" width="155.608" height="178.601" filterUnits="userSpaceOnUse">
      <feOffset dy="3" input="SourceAlpha"/>
      <feGaussianBlur stdDeviation="5" result="blur-7"/>
      <feFlood flood-opacity="0.349"/>
      <feComposite operator="in" in2="blur-7"/>
      <feComposite in="SourceGraphic"/>
    </filter>
    <filter id="Path_101" x="357.248" y="62.908" width="77.389" height="72.838" filterUnits="userSpaceOnUse">
      <feOffset dy="3" input="SourceAlpha"/>
      <feGaussianBlur stdDeviation="3" result="blur-8"/>
      <feFlood flood-opacity="0.349"/>
      <feComposite operator="in" in2="blur-8"/>
      <feComposite in="SourceGraphic"/>
    </filter>
    <filter id="Path_62" x="371.315" y="36.764" width="148.212" height="99.568" filterUnits="userSpaceOnUse">
      <feOffset dy="3" input="SourceAlpha"/>
      <feGaussianBlur stdDeviation="3" result="blur-9"/>
      <feFlood flood-opacity="0.349"/>
      <feComposite operator="in" in2="blur-9"/>
      <feComposite in="SourceGraphic"/>
    </filter>
    <filter id="Path_67" x="68.485" y="205.841" width="164.911" height="183.119" filterUnits="userSpaceOnUse">
      <feOffset dy="3" input="SourceAlpha"/>
      <feGaussianBlur stdDeviation="5" result="blur-10"/>
      <feFlood flood-opacity="0.349"/>
      <feComposite operator="in" in2="blur-10"/>
      <feComposite in="SourceGraphic"/>
    </filter>
    <filter id="Path_78" x="-67.434" y="330.085" width="161.677" height="121.544" filterUnits="userSpaceOnUse">
      <feOffset dy="3" input="SourceAlpha"/>
      <feGaussianBlur stdDeviation="5" result="blur-11"/>
      <feFlood flood-opacity="0.349"/>
      <feComposite operator="in" in2="blur-11"/>
      <feComposite in="SourceGraphic"/>
    </filter>
    <filter id="Path_81" x="-57.787" y="321.236" width="244.774" height="130.392" filterUnits="userSpaceOnUse">
      <feOffset dy="3" input="SourceAlpha"/>
      <feGaussianBlur stdDeviation="5" result="blur-12"/>
      <feFlood flood-opacity="0.349"/>
      <feComposite operator="in" in2="blur-12"/>
      <feComposite in="SourceGraphic"/>
    </filter>
    <filter id="Path_83" x="62.647" y="53.218" width="185.91" height="171.634" filterUnits="userSpaceOnUse">
      <feOffset dy="3" input="SourceAlpha"/>
      <feGaussianBlur stdDeviation="5" result="blur-13"/>
      <feFlood flood-opacity="0.349"/>
      <feComposite operator="in" in2="blur-13"/>
      <feComposite in="SourceGraphic"/>
    </filter>
    <filter id="Path_94" x="-71.881" y="-11.237" width="146.547" height="132.716" filterUnits="userSpaceOnUse">
      <feOffset dy="3" input="SourceAlpha"/>
      <feGaussianBlur stdDeviation="3" result="blur-14"/>
      <feFlood flood-opacity="0.349"/>
      <feComposite operator="in" in2="blur-14"/>
      <feComposite in="SourceGraphic"/>
    </filter>
    <filter id="Path_97" x="-77.881" y="5.133" width="223.879" height="180.103" filterUnits="userSpaceOnUse">
      <feOffset dy="3" input="SourceAlpha"/>
      <feGaussianBlur stdDeviation="5" result="blur-15"/>
      <feFlood flood-opacity="0.349"/>
      <feComposite operator="in" in2="blur-15"/>
      <feComposite in="SourceGraphic"/>
    </filter>
  </defs>
  <g id="Group_45" data-name="Group 45" clip-path="url(#clip-path)">
    <g id="Group_14" data-name="Group 14" transform="translate(222.415 240.822)">
      <g transform="matrix(1, 0, 0, 1, -222.41, -240.82)" filter="url(#Path_32)">
        <path id="Path_32-2" data-name="Path 32" d="M537.36,444.05,502.1,438.432a16.738,16.738,0,1,1-28.576-4.553l-35.109-5.592a12.706,12.706,0,0,0-14.547,10.549l-5.8,36.383A14.581,14.581,0,1,0,413.9,501.4l-5.8,36.382a12.707,12.707,0,0,0,10.549,14.547L517.6,568.093a12.706,12.706,0,0,0,14.547-10.549L547.91,458.6A12.707,12.707,0,0,0,537.36,444.05Z" transform="translate(-172.99 -187.31)" fill="#b9e7ed"/>
      </g>
      <path id="Path_33" data-name="Path 33" d="M575.55,602.473l5.471-34.347-31.755-35.265a6.159,6.159,0,0,0-8.7-.454l-1.375,1.237a6.163,6.163,0,0,0-.455,8.7L560.394,566.4l-.682.614-.289.259-28.016-31.112a6.163,6.163,0,0,0-8.7-.455l-1.375,1.238a6.2,6.2,0,0,0-.571.6c-.044.052-.088.1-.13.159a6.135,6.135,0,0,0-.441.625c-.007.011-.014.021-.021.031a6.09,6.09,0,0,0-.362.718c-.023.051-.043.1-.063.154a6.235,6.235,0,0,0-.244.727l-.007.024a6.237,6.237,0,0,0-.148.806c0,.037-.008.074-.011.111a6.2,6.2,0,0,0-.033.8h0a6.187,6.187,0,0,0,.084.844c0,.021.008.042.012.064a6.187,6.187,0,0,0,.2.806l0,.008h0a6.127,6.127,0,0,0,1.278,2.22l28.016,31.112-.8.719L515.341,541.1a6.159,6.159,0,0,0-8.7-.453l-1.375,1.237a6.158,6.158,0,0,0-.456,8.7l32.752,36.374-1,.9L506.722,554.72a6.16,6.16,0,0,0-8.7-.455l-1.376,1.238a6.162,6.162,0,0,0-.454,8.7l36.679,40.734,0,0,3.751,4.165-18.547-3.49a7.785,7.785,0,0,0-3.352.035L561,613.022A12.706,12.706,0,0,0,575.55,602.473Z" transform="translate(-438.807 -473.056)" fill="#333" opacity="0.08"/>
      <g id="Group_13" data-name="Group 13" transform="translate(59.834 56.93)">
        <g id="Group_12" data-name="Group 12">
          <g id="Group_10" data-name="Group 10">
            <g transform="matrix(1, 0, 0, 1, -282.25, -297.75)" filter="url(#Path_2044)">
              <path id="Path_2044-2" data-name="Path 2044" d="M2.762,2.419H46.473V52.468H2.762Z" transform="matrix(0.74, -0.67, 0.67, 0.74, 343.56, 389.53)" fill="#d9ae8d"/>
            </g>
            <g transform="matrix(1, 0, 0, 1, -282.25, -297.75)" filter="url(#Path_34)">
              <path id="Path_34-2" data-name="Path 34" d="M623.2,598.591c11.248,12.493,2.017,24.175-.89,26.793L596.56,648.575a7.089,7.089,0,0,1-10.009-.527l-21.9-24.322a7.084,7.084,0,0,1,.524-10.007l34.3-30.888a7.086,7.086,0,0,1,10.008.524Z" transform="translate(-246.24 -254.19)" fill="#f7c6a1"/>
            </g>
            <g id="Group_5" data-name="Group 5" transform="translate(0 21.859)">
              <path id="Path_35" data-name="Path 35" d="M550.569,610.97a6.162,6.162,0,0,1-.455,8.7l-1.374,1.237a6.16,6.16,0,0,1-8.7-.458l-36.68-40.734a6.162,6.162,0,0,1,.455-8.7l1.376-1.238a6.16,6.16,0,0,1,8.7.454Z" transform="translate(-501.776 -568.198)" fill="#f7c6a1"/>
              <path id="Path_36" data-name="Path 36" d="M515.31,574.318c1.952,2.168.274,3.84-1.894,5.792s-4,3.446-5.957,1.277a5.283,5.283,0,0,1,7.851-7.07Z" transform="translate(-503.669 -570.111)" fill="#f7dfcd"/>
            </g>
            <g id="Group_6" data-name="Group 6" transform="translate(8.619 8.241)">
              <path id="Path_37" data-name="Path 37" d="M565.892,586.756a6.162,6.162,0,0,1-.456,8.7l-1.372,1.238a6.163,6.163,0,0,1-8.7-.457L518.68,555.5a6.158,6.158,0,0,1,.456-8.7l1.375-1.237a6.159,6.159,0,0,1,8.7.452Z" transform="translate(-517.098 -543.986)" fill="#f7c6a1"/>
              <path id="Path_38" data-name="Path 38" d="M530.634,550.109c1.953,2.167.273,3.838-1.894,5.79s-4.005,3.448-5.957,1.279a5.282,5.282,0,0,1,7.851-7.068Z" transform="translate(-518.992 -545.901)" fill="#f7dfcd"/>
            </g>
            <g id="Group_7" data-name="Group 7" transform="translate(24.685 3.297)">
              <path id="Path_39" data-name="Path 39" d="M594.453,577.97a6.16,6.16,0,0,1-.455,8.7l-1.375,1.238a6.158,6.158,0,0,1-8.7-.457l-36.681-40.734a6.163,6.163,0,0,1,.455-8.7l1.376-1.238a6.162,6.162,0,0,1,8.7.455Z" transform="translate(-545.66 -535.198)" fill="#f7c6a1"/>
              <path id="Path_40" data-name="Path 40" d="M559.194,541.32c1.953,2.167.275,3.839-1.894,5.791s-4,3.446-5.956,1.28a5.283,5.283,0,1,1,7.85-7.071Z" transform="translate(-547.553 -537.112)" fill="#f7dfcd"/>
            </g>
            <g id="Group_8" data-name="Group 8" transform="translate(42.544)">
              <path id="Path_41" data-name="Path 41" d="M626.2,572.108a6.161,6.161,0,0,1-.454,8.7l-1.374,1.238a6.159,6.159,0,0,1-8.7-.457l-36.681-40.734a6.162,6.162,0,0,1,.455-8.7l1.375-1.237a6.159,6.159,0,0,1,8.7.455Z" transform="translate(-577.41 -529.336)" fill="#f7c6a1"/>
              <path id="Path_42" data-name="Path 42" d="M590.944,535.458c1.952,2.169.274,3.84-1.894,5.791s-4,3.448-5.957,1.279a5.283,5.283,0,1,1,7.851-7.07Z" transform="translate(-579.302 -531.251)" fill="#f7dfcd"/>
            </g>
            <g id="Group_9" data-name="Group 9" transform="translate(13.954 74.624)">
              <g transform="matrix(1, 0, 0, 1, -296.2, -372.38)" filter="url(#Path_43)">
                <path id="Path_43-2" data-name="Path 43" d="M577.546,669.97a7.825,7.825,0,0,1,6.048,9.267l-.08.376a7.825,7.825,0,0,1-9.268,6.046l-41.446-7.8a7.826,7.826,0,0,1-6.049-9.265l.081-.376a7.822,7.822,0,0,1,9.266-6.046Z" transform="translate(-230.38 -289.63)" fill="#f7c6a1"/>
              </g>
              <path id="Path_44" data-name="Path 44" d="M531.516,678.153a6.683,6.683,0,0,0,.1,2.769,7.751,7.751,0,0,0,3.3,1.567l6.1,1.186a18.859,18.859,0,0,0,.908-3.719c.631-3.652,1-6.636-2.654-7.267A6.709,6.709,0,0,0,531.516,678.153Z" transform="translate(-528.698 -666.633)" fill="#f7dfcd"/>
            </g>
          </g>
          <g transform="matrix(1, 0, 0, 1, -282.25, -297.75)" filter="url(#Path_45)">
            <path id="Path_45-2" data-name="Path 45" d="M750.089,745.388l-39.423,35.5-80.823-89.757,27-24.309,10.858,8.717-6.99-12.2,8.557-7.7Z" transform="translate(-275.56 -286.84)" fill="#a8bcbf"/>
          </g>
          <g id="Group_11" data-name="Group 11" transform="translate(108.463 77.996)">
            <path id="Path_46" data-name="Path 46" d="M700.861,669.185a3.593,3.593,0,1,1-5.074-.267A3.593,3.593,0,0,1,700.861,669.185Z" transform="translate(-694.599 -667.996)" fill="#4d4d4d"/>
            <path id="Path_47" data-name="Path 47" d="M700.906,671.007a2.334,2.334,0,1,1-3.3-.172A2.334,2.334,0,0,1,700.906,671.007Z" transform="translate(-695.578 -668.976)" fill="#333"/>
          </g>
        </g>
        <path id="Path_48" data-name="Path 48" d="M566.934,530.92l-1.375,1.237a6.162,6.162,0,0,0-.455,8.7l21.66,24.054-.971.872L557.776,534.67a6.162,6.162,0,0,0-8.7-.455l-1.376,1.238a6.16,6.16,0,0,0-1.733,6.479l148.606,165.03,18.69-16.83-80.823-89.756-3.469,3.124-8.648-9.6c1.541-4.933,1.32-11.308-4.627-17.915l-2.8-3.1a6.083,6.083,0,0,0-.584-.773l-36.68-40.733A6.159,6.159,0,0,0,566.934,530.92Z" transform="translate(-520.978 -529.336)" fill="#333" opacity="0.05"/>
      </g>
    </g>
    <g id="Group_24" data-name="Group 24" transform="translate(234.76 42.764)">
      <g id="Group_15" data-name="Group 15" transform="translate(110.431 74.112)">
        <g transform="matrix(1, 0, 0, 1, -345.19, -116.88)" filter="url(#Path_49)">
          <path id="Path_49-2" data-name="Path 49" d="M636.869,211.391a7.825,7.825,0,0,1,10.807-2.379l.324.209a7.824,7.824,0,0,1,2.375,10.807l-21.962,36.006a7.826,7.826,0,0,1-10.806,2.378l-.323-.209a7.821,7.821,0,0,1-2.376-10.806Z" transform="translate(-268.48 -90.9)" fill="#f7d1b4"/>
        </g>
        <path id="Path_50" data-name="Path 50" d="M627.963,287.867a6.684,6.684,0,0,0,2.627.883,7.761,7.761,0,0,0,2.631-2.527l3.268-5.288a18.8,18.8,0,0,0-3.157-2.165c-3.193-1.883-5.854-3.28-7.737-.089A6.71,6.71,0,0,0,627.963,287.867Z" transform="translate(-618.482 -237.968)" fill="#f7dfcd"/>
      </g>
      <g transform="matrix(1, 0, 0, 1, -234.76, -42.76)" filter="url(#Path_51)">
        <path id="Path_51-2" data-name="Path 51" d="M530.253,150.944h-100.2a12.707,12.707,0,0,0-12.706,12.706v35.967a16.494,16.494,0,1,1,0,28.262v35.966a12.707,12.707,0,0,0,12.706,12.706h38.113a14.581,14.581,0,1,0,23.813,0h38.269a12.707,12.707,0,0,0,12.707-12.706V163.65A12.707,12.707,0,0,0,530.253,150.944Z" transform="translate(-182.59 -66.04)" fill="#f2a753"/>
      </g>
      <path id="Path_52" data-name="Path 52" d="M576.76,163.65a12.707,12.707,0,0,0-12.707-12.706h-2.145l-.289.075c-.148.014-.3.031-.445.057-.168.027-.335.06-.5.1L507.6,164.886a6.159,6.159,0,0,0-4.423,7.506l.461,1.791a6.163,6.163,0,0,0,7.505,4.424l31.339-8.094.188.728.138.536L502.27,182.246a6.163,6.163,0,0,0-4.424,7.507l.462,1.792c.048.184.106.363.168.539.02.053.04.1.06.156.05.128.1.254.161.377.023.049.045.1.069.148.08.16.165.316.258.466.02.032.042.062.062.094q.115.178.24.347c.04.054.082.107.124.159.071.09.146.177.222.263.044.05.088.1.134.149.111.116.227.23.346.338.056.05.115.1.173.145.074.061.148.122.224.179s.142.105.215.155.137.092.206.136c.152.1.309.187.47.27.05.026.1.055.149.079.095.046.191.086.287.127.059.025.118.05.178.073q.149.058.3.109c.053.017.109.033.163.049a6.188,6.188,0,0,0,.641.155c.031.006.061.013.093.019h0a6.14,6.14,0,0,0,2.558-.107l40.538-10.47.269,1.042-47.391,12.24a6.159,6.159,0,0,0-4.421,7.505l.461,1.79a6.16,6.16,0,0,0,7.5,4.424l47.391-12.238.337,1.3-43.177,11.151a6.159,6.159,0,0,0-4.422,7.5l.462,1.793a6.162,6.162,0,0,0,7.505,4.424l53.073-13.706.007,0,12.812-3.309Z" transform="translate(-451.152 -108.802)" fill="#333" opacity="0.08"/>
      <g id="Group_23" data-name="Group 23" transform="translate(45.123)">
        <g id="Group_22" data-name="Group 22" transform="translate(0 0)">
          <g id="Group_20" data-name="Group 20" transform="translate(0 26.144)">
            <g transform="matrix(1, 0, 0, 1, -279.88, -68.91)" filter="url(#Path_101)">
              <path id="Path_101-2" data-name="Path 101" d="M1.2,1.249H51.25V44.96H1.2Z" transform="translate(364.77 80.51) rotate(-14.48)" fill="#ebc09f"/>
            </g>
            <path id="Path_53" data-name="Path 53" d="M604.325,135.457c16.276-4.2,22.372,9.382,23.35,13.17l8.667,33.554a7.089,7.089,0,0,1-5.092,8.633L599.56,199a7.083,7.083,0,0,1-8.632-5.088l-11.543-44.693a7.086,7.086,0,0,1,5.088-8.633Z" transform="translate(-533.265 -127.821)" fill="#f7d1b4"/>
            <g id="Group_16" data-name="Group 16" transform="translate(8.094 56.476)">
              <path id="Path_54" data-name="Path 54" d="M569.655,223.1a6.162,6.162,0,0,1,7.508,4.425l.462,1.79a6.16,6.16,0,0,1-4.427,7.505l-53.073,13.706a6.162,6.162,0,0,1-7.505-4.424l-.462-1.792a6.16,6.16,0,0,1,4.422-7.5Z" transform="translate(-511.961 -222.903)" fill="#f7d1b4"/>
              <path id="Path_55" data-name="Path 55" d="M520.128,250.04c2.825-.73,3.531,1.531,4.261,4.355s1.207,5.144-1.619,5.874a5.282,5.282,0,0,1-2.642-10.229Z" transform="translate(-513.801 -234.715)" fill="#ffecde"/>
            </g>
            <g id="Group_17" data-name="Group 17" transform="translate(0 42.539)">
              <path id="Path_56" data-name="Path 56" d="M555.264,198.324a6.162,6.162,0,0,1,7.508,4.426l.464,1.789a6.164,6.164,0,0,1-4.427,7.507l-53.075,13.706a6.159,6.159,0,0,1-7.5-4.424l-.461-1.791a6.16,6.16,0,0,1,4.421-7.505Z" transform="translate(-497.571 -198.127)" fill="#f7d1b4"/>
              <path id="Path_57" data-name="Path 57" d="M505.738,225.263c2.825-.73,3.531,1.532,4.26,4.355s1.206,5.145-1.619,5.874a5.282,5.282,0,0,1-2.642-10.229Z" transform="translate(-499.411 -209.939)" fill="#ffecde"/>
            </g>
            <g id="Group_18" data-name="Group 18" transform="translate(3.038 26.007)">
              <path id="Path_58" data-name="Path 58" d="M560.668,168.934a6.161,6.161,0,0,1,7.507,4.425l.462,1.791a6.158,6.158,0,0,1-4.426,7.5l-53.074,13.708a6.163,6.163,0,0,1-7.505-4.424l-.462-1.792a6.162,6.162,0,0,1,4.424-7.506Z" transform="translate(-502.973 -168.737)" fill="#f7d1b4"/>
              <path id="Path_59" data-name="Path 59" d="M511.141,195.873c2.824-.73,3.531,1.531,4.261,4.356s1.2,5.144-1.618,5.874a5.283,5.283,0,1,1-2.643-10.23Z" transform="translate(-504.813 -180.548)" fill="#ffecde"/>
            </g>
            <g id="Group_19" data-name="Group 19" transform="translate(8.367 8.645)">
              <path id="Path_60" data-name="Path 60" d="M570.14,138.069a6.16,6.16,0,0,1,7.507,4.424l.464,1.79a6.162,6.162,0,0,1-4.427,7.506L520.611,165.5a6.163,6.163,0,0,1-7.505-4.424l-.461-1.791a6.159,6.159,0,0,1,4.423-7.507Z" transform="translate(-512.446 -137.872)" fill="#f7d1b4"/>
              <path id="Path_61" data-name="Path 61" d="M520.613,165.008c2.825-.73,3.532,1.532,4.26,4.355s1.207,5.145-1.618,5.874a5.282,5.282,0,1,1-2.642-10.229Z" transform="translate(-514.286 -149.684)" fill="#ffecde"/>
            </g>
          </g>
          <g transform="matrix(1, 0, 0, 1, -279.88, -42.76)" filter="url(#Path_62)">
            <path id="Path_62-2" data-name="Path 62" d="M793.061,76.024l13.265,51.366-116.947,30.2L680.3,122.417l12.748-5.6-14.05.561-2.878-11.149Z" transform="translate(-295.8 -33.26)" fill="#c49e72"/>
          </g>
          <g id="Group_21" data-name="Group 21" transform="translate(106.466 30.955)">
            <path id="Path_63" data-name="Path 63" d="M689.54,131.17a3.593,3.593,0,1,1-2.581,4.377A3.593,3.593,0,0,1,689.54,131.17Z" transform="translate(-686.845 -131.055)" fill="#4d4d4d"/>
            <path id="Path_64" data-name="Path 64" d="M690.836,133.369a2.334,2.334,0,1,1-1.677,2.843A2.334,2.334,0,0,1,690.836,133.369Z" transform="translate(-687.824 -132.035)" fill="#333"/>
          </g>
        </g>
        <path id="Path_65" data-name="Path 65" d="M508.5,132.224l.461,1.791a6.163,6.163,0,0,0,7.505,4.424l31.34-8.094.325,1.265-40.537,10.469a6.162,6.162,0,0,0-4.424,7.506l.462,1.792a6.162,6.162,0,0,0,4.946,4.532l59.782-15.439L723.6,100.376l-6.289-24.352-116.946,30.2,1.168,4.521L589.02,113.98c-3.662-3.646-9.419-6.4-18.026-4.175l-4.043,1.046a6.075,6.075,0,0,0-.956.161l-53.073,13.706A6.159,6.159,0,0,0,508.5,132.224Z" transform="translate(-499.934 -76.024)" fill="#333" opacity="0.05"/>
      </g>
    </g>
    <g id="Group_34" data-name="Group 34" transform="translate(-52.434 217.841)">
      <g id="Group_25" data-name="Group 25" transform="translate(123.636 75.988)">
        <path id="Path_66" data-name="Path 66" d="M141.729,571.918a7.823,7.823,0,0,1-10.514,3.449l-.344-.175a7.825,7.825,0,0,1-3.445-10.515l18.245-38.023a7.826,7.826,0,0,1,10.513-3.449l.342.176a7.822,7.822,0,0,1,3.446,10.514Z" transform="translate(-126.58 -522.362)" fill="#c7a482"/>
      </g>
      <g transform="matrix(1, 0, 0, 1, 52.43, -217.84)" filter="url(#Path_67)">
        <path id="Path_67-2" data-name="Path 67" d="M271.042,451.055a16.355,16.355,0,0,1,5.839.479l-3.392-34.588a12.706,12.706,0,0,0-13.885-11.4l-38.154,3.742a14.581,14.581,0,1,0-23.408,2.3l-38.155,3.742a12.706,12.706,0,0,0-11.405,13.885l9.78,99.717a12.706,12.706,0,0,0,13.885,11.406l99.717-9.78a12.707,12.707,0,0,0,11.406-13.886l-3.392-34.587a16.391,16.391,0,1,1-8.834-31.021Z" transform="translate(-64.93 -169.43)" fill="#1d5a69"/>
      </g>
      <path id="Path_68" data-name="Path 68" d="M174.56,613.972l52.761-13.447a6.159,6.159,0,0,0,4.447-7.491l-.456-1.793a6.162,6.162,0,0,0-7.491-4.447l-31.364,7.994-.219-.858-.1-.407,40.569-10.34a6.163,6.163,0,0,0,4.448-7.493L236.7,573.9c-.047-.186-.105-.366-.168-.541-.019-.053-.039-.1-.059-.155-.049-.13-.1-.257-.161-.381-.023-.048-.044-.1-.068-.143-.08-.161-.165-.32-.258-.471-.018-.03-.038-.057-.057-.086-.078-.123-.159-.241-.244-.356-.039-.053-.08-.106-.121-.157-.072-.092-.147-.18-.223-.267-.044-.049-.087-.1-.132-.148-.111-.118-.226-.231-.345-.338-.056-.051-.116-.1-.174-.147s-.146-.121-.222-.178-.143-.107-.216-.157-.134-.089-.2-.133a6.087,6.087,0,0,0-.916-.484c-.055-.024-.11-.047-.165-.069-.1-.039-.205-.078-.31-.112-.048-.016-.1-.03-.146-.046a6.182,6.182,0,0,0-.694-.168l-.052-.011h0a6.121,6.121,0,0,0-2.559.1l-40.571,10.34-.266-1.042,47.43-12.089a6.159,6.159,0,0,0,4.445-7.491l-.456-1.793a6.159,6.159,0,0,0-7.49-4.448l-47.43,12.088-.333-1.306,43.213-11.014a6.158,6.158,0,0,0,4.445-7.49l-.456-1.794a6.161,6.161,0,0,0-7.491-4.448L171.13,552.5l-.007,0-11.457,2.919,4.64,47.31A12.708,12.708,0,0,0,174.56,613.972Z" transform="translate(-17.419 -453.553)" fill="#333" opacity="0.15"/>
      <g id="Group_33" data-name="Group 33" transform="translate(0 85.569)">
        <g id="Group_32" data-name="Group 32">
          <g id="Group_30" data-name="Group 30" transform="translate(80.647)">
            <path id="Path_2045" data-name="Path 2045" d="M1.616,1.7H51.664V45.408H1.616Z" transform="translate(0 53.889) rotate(-20.231)" fill="#b39273"/>
            <path id="Path_69" data-name="Path 69" d="M163.432,635.2c-15.773,5.812-23.2-7.094-24.551-10.766L126.9,591.919a7.088,7.088,0,0,1,4.2-9.1L161.808,571.5a7.083,7.083,0,0,1,9.1,4.2l15.961,43.312a7.083,7.083,0,0,1-4.2,9.1Z" transform="translate(-83.537 -553.249)" fill="#c7a482"/>
            <g id="Group_26" data-name="Group 26" transform="translate(71.293)">
              <path id="Path_70" data-name="Path 70" d="M185.832,572.027a6.161,6.161,0,0,1-7.914-3.651l-.638-1.734a6.16,6.16,0,0,1,3.653-7.912l51.433-18.955a6.162,6.162,0,0,1,7.911,3.649l.639,1.738a6.16,6.16,0,0,1-3.647,7.91Z" transform="translate(-176.898 -539.395)" fill="#c7a482"/>
              <path id="Path_71" data-name="Path 71" d="M276.614,553.538c-2.738,1.009-3.667-1.17-4.676-3.907s-1.716-5,1.023-6.008a5.283,5.283,0,0,1,3.653,9.915Z" transform="translate(-218.086 -541.102)" fill="#f7dfcd"/>
            </g>
            <g id="Group_27" data-name="Group 27" transform="translate(80.744 13.055)">
              <path id="Path_72" data-name="Path 72" d="M202.634,595.238a6.162,6.162,0,0,1-7.913-3.651l-.641-1.734a6.163,6.163,0,0,1,3.653-7.913l51.435-18.954a6.161,6.161,0,0,1,7.909,3.65l.638,1.736a6.16,6.16,0,0,1-3.648,7.91Z" transform="translate(-193.699 -562.604)" fill="#c7a482"/>
              <path id="Path_73" data-name="Path 73" d="M293.414,576.749c-2.737,1.008-3.666-1.171-4.674-3.907s-1.716-5,1.022-6.007a5.283,5.283,0,0,1,3.652,9.914Z" transform="translate(-234.887 -564.312)" fill="#f7dfcd"/>
            </g>
            <g id="Group_28" data-name="Group 28" transform="translate(79.376 29.81)">
              <path id="Path_74" data-name="Path 74" d="M200.2,625.022a6.16,6.16,0,0,1-7.912-3.65l-.64-1.736a6.158,6.158,0,0,1,3.652-7.91l51.433-18.955a6.163,6.163,0,0,1,7.911,3.651l.639,1.735a6.162,6.162,0,0,1-3.65,7.912Z" transform="translate(-191.268 -592.39)" fill="#c7a482"/>
              <path id="Path_75" data-name="Path 75" d="M290.982,606.531c-2.737,1.009-3.667-1.17-4.676-3.907s-1.714-5,1.021-6.007a5.283,5.283,0,0,1,3.655,9.914Z" transform="translate(-232.455 -594.096)" fill="#f7dfcd"/>
            </g>
            <g id="Group_29" data-name="Group 29" transform="translate(75.814 47.618)">
              <path id="Path_76" data-name="Path 76" d="M193.869,656.681a6.161,6.161,0,0,1-7.913-3.65l-.641-1.735a6.161,6.161,0,0,1,3.652-7.911L240.4,624.43a6.161,6.161,0,0,1,7.91,3.649l.639,1.737a6.158,6.158,0,0,1-3.65,7.91Z" transform="translate(-184.934 -624.049)" fill="#c7a482"/>
              <path id="Path_77" data-name="Path 77" d="M284.649,638.19c-2.738,1.009-3.668-1.17-4.676-3.907s-1.716-5,1.023-6.007a5.283,5.283,0,0,1,3.653,9.914Z" transform="translate(-226.122 -625.755)" fill="#f7dfcd"/>
            </g>
          </g>
          <g transform="matrix(1, 0, 0, 1, 52.43, -303.41)" filter="url(#Path_78)">
            <path id="Path_78-2" data-name="Path 78" d="M-74.872,699.694l-18.345-49.779L20.116,608.15l12.562,34.088-12.123,6.85,13.924-1.965,3.981,10.8Z" transform="translate(40.78 -266.07)" fill="#43759c"/>
          </g>
          <g id="Group_31" data-name="Group 31" transform="translate(118.065 81.499)">
            <path id="Path_79" data-name="Path 79" d="M121.515,691.247a3.593,3.593,0,1,1,2.13-4.612A3.592,3.592,0,0,1,121.515,691.247Z" transform="translate(-116.677 -684.283)" fill="#4d4d4d"/>
            <path id="Path_80" data-name="Path 80" d="M122.057,691.046a2.334,2.334,0,1,1,1.384-3A2.333,2.333,0,0,1,122.057,691.046Z" transform="translate(-117.657 -685.262)" fill="#333"/>
          </g>
        </g>
        <g transform="matrix(1, 0, 0, 1, 52.43, -303.41)" filter="url(#Path_81)">
          <path id="Path_81-2" data-name="Path 81" d="M134.763,615.979l-.639-1.737a6.161,6.161,0,0,0-7.91-3.649L95.842,621.786l-.45-1.227,39.284-14.477a6.162,6.162,0,0,0,3.65-7.912l-.639-1.735a6.159,6.159,0,0,0-5.375-4.015L-76.066,669.212l8.7,23.6L45.963,651.046l-1.615-4.381L56.475,642.2c4.01,3.261,10.012,5.421,18.353,2.348l3.918-1.446a6.046,6.046,0,0,0,.936-.256l51.432-18.955A6.158,6.158,0,0,0,134.763,615.979Z" transform="translate(33.28 -259.18)" fill="#333" opacity="0.05"/>
        </g>
      </g>
    </g>
    <g id="Group_44" data-name="Group 44" transform="translate(-62.881 -5.237)">
      <g id="Group_35" data-name="Group 35" transform="translate(132.63 72.774)">
        <path id="Path_82" data-name="Path 82" d="M132.713,141.511a7.825,7.825,0,0,1-8.628-6.929l-.04-.384a7.825,7.825,0,0,1,6.931-8.625l41.819-5.461a7.826,7.826,0,0,1,8.628,6.928l.039.382a7.822,7.822,0,0,1-6.929,8.625Z" transform="translate(-123.998 -120.066)" fill="#f7c6a1"/>
      </g>
      <g transform="matrix(1, 0, 0, 1, 62.88, 5.24)" filter="url(#Path_83)">
        <path id="Path_83-2" data-name="Path 83" d="M281.923,184.969a14.513,14.513,0,0,0-9.2,1.377l6.751-37.89a12.706,12.706,0,0,0-10.28-14.737l-98.642-17.575a12.706,12.706,0,0,0-14.738,10.28l-17.575,98.642a12.706,12.706,0,0,0,10.28,14.738l36.4,6.486a15.7,15.7,0,1,1,25.838,4.6l36.4,6.486A12.707,12.707,0,0,0,261.9,247.1l6.751-37.889a14.581,14.581,0,1,0,13.274-24.24Z" transform="translate(-60.39 -50.73)" fill="#43ab9b"/>
      </g>
      <path id="Path_84" data-name="Path 84" d="M207.83,194.247a6.16,6.16,0,0,0,8.619-1.258l1.106-1.484a6.161,6.161,0,0,0-1.258-8.62l-43.95-32.757h0l-12.973-9.669-11.851,66.514,22.871,17.047a6.16,6.16,0,0,0,8.621-1.259l1.106-1.483a6.162,6.162,0,0,0-1.259-8.62l-25.951-19.343.41-.55.371-.5,33.568,25.019a6.162,6.162,0,0,0,8.621-1.259l1.106-1.483c.114-.152.217-.31.314-.469.029-.048.057-.1.084-.145q.1-.179.192-.362c.024-.049.049-.1.071-.147.074-.163.143-.327.2-.494.012-.034.021-.069.033-.1.046-.136.086-.272.122-.41.017-.064.032-.128.046-.191.026-.115.048-.229.067-.345.011-.064.023-.128.031-.192.021-.161.037-.323.046-.484,0-.073,0-.146,0-.218,0-.1,0-.2,0-.3s-.007-.172-.013-.258-.015-.17-.025-.255c-.015-.131-.034-.262-.057-.392-.018-.1-.036-.2-.06-.305s-.051-.2-.079-.3c-.018-.064-.037-.128-.056-.191-.033-.1-.066-.2-.1-.3-.021-.055-.044-.109-.066-.163a6.18,6.18,0,0,0-.278-.589c-.016-.029-.029-.059-.045-.088h0a6.139,6.139,0,0,0-1.687-1.926L162.158,180.9l.643-.862,39.245,29.249a6.16,6.16,0,0,0,8.619-1.261l1.106-1.482a6.161,6.161,0,0,0-1.257-8.62l-39.245-29.251.806-1.081Z" transform="translate(-1.66 -56.213)" fill="#333" opacity="0.08"/>
      <g id="Group_43" data-name="Group 43">
        <g id="Group_42" data-name="Group 42">
          <g id="Group_40" data-name="Group 40" transform="translate(68.663 55.417)">
            <path id="Path_2046" data-name="Path 2046" d="M2.6,2.372H46.316V52.421H2.6Z" transform="translate(0 35.719) rotate(-53.302)" fill="#d9ae8d"/>
            <path id="Path_85" data-name="Path 85" d="M91.726,186.923c-13.477-10.047-6.715-23.312-4.376-26.449l20.708-27.787a7.089,7.089,0,0,1,9.918-1.445l26.243,19.56a7.084,7.084,0,0,1,1.447,9.916l-27.584,37.01a7.085,7.085,0,0,1-9.916,1.447Z" transform="translate(-42.345 -106.984)" fill="#f7c6a1"/>
            <g id="Group_36" data-name="Group 36" transform="translate(88.409 40.72)">
              <path id="Path_86" data-name="Path 86" d="M169.931,174.186a6.162,6.162,0,0,1-1.259-8.624l1.105-1.483a6.16,6.16,0,0,1,8.623-1.255l43.95,32.757a6.161,6.161,0,0,1,1.258,8.62l-1.107,1.484a6.159,6.159,0,0,1-8.618,1.258Z" transform="translate(-167.45 -161.601)" fill="#f7c6a1"/>
              <path id="Path_87" data-name="Path 87" d="M249.08,231.136c-2.34-1.744-1.02-3.711.723-6.05s3.251-4.165,5.591-2.42a5.283,5.283,0,0,1-6.314,8.471Z" transform="translate(-202.612 -188.013)" fill="#f7dfcd"/>
            </g>
            <g id="Group_37" data-name="Group 37" transform="translate(82.626 55.765)">
              <path id="Path_88" data-name="Path 88" d="M159.65,200.932a6.163,6.163,0,0,1-1.258-8.624l1.1-1.483a6.163,6.163,0,0,1,8.623-1.256l43.951,32.759a6.161,6.161,0,0,1,1.257,8.62l-1.106,1.482a6.159,6.159,0,0,1-8.619,1.261Z" transform="translate(-157.169 -188.346)" fill="#f7c6a1"/>
              <path id="Path_89" data-name="Path 89" d="M238.8,257.879c-2.339-1.743-1.02-3.711.722-6.049s3.253-4.165,5.592-2.421a5.282,5.282,0,0,1-6.314,8.47Z" transform="translate(-192.331 -214.758)" fill="#f7dfcd"/>
            </g>
            <g id="Group_38" data-name="Group 38" transform="translate(67.84 63.76)">
              <path id="Path_90" data-name="Path 90" d="M133.363,215.144a6.159,6.159,0,0,1-1.258-8.622l1.105-1.483a6.16,6.16,0,0,1,8.621-1.256l43.951,32.757a6.163,6.163,0,0,1,1.258,8.62l-1.106,1.483a6.162,6.162,0,0,1-8.621,1.259Z" transform="translate(-130.883 -202.56)" fill="#f7c6a1"/>
              <path id="Path_91" data-name="Path 91" d="M212.514,272.094c-2.339-1.743-1.021-3.711.722-6.05s3.252-4.164,5.59-2.422a5.282,5.282,0,0,1-6.312,8.472Z" transform="translate(-166.045 -228.972)" fill="#f7dfcd"/>
            </g>
            <g id="Group_39" data-name="Group 39" transform="translate(50.974 70.492)">
              <path id="Path_92" data-name="Path 92" d="M103.379,227.113a6.161,6.161,0,0,1-1.26-8.622l1.1-1.484a6.16,6.16,0,0,1,8.623-1.257L155.8,248.508a6.162,6.162,0,0,1,1.258,8.62l-1.106,1.483a6.159,6.159,0,0,1-8.621,1.259Z" transform="translate(-100.899 -214.528)" fill="#f7c6a1"/>
              <path id="Path_93" data-name="Path 93" d="M182.527,284.063c-2.339-1.744-1.021-3.712.723-6.05s3.251-4.165,5.591-2.421a5.283,5.283,0,1,1-6.313,8.471Z" transform="translate(-136.06 -240.94)" fill="#f7dfcd"/>
            </g>
          </g>
          <g transform="matrix(1, 0, 0, 1, 62.88, 5.24)" filter="url(#Path_94)">
            <path id="Path_94-2" data-name="Path 94" d="M-111.788,33.225l31.7-42.536L16.759,62.87-4.952,92l-12.356-6.421,9.245,10.6-6.882,9.232Z" transform="translate(48.91 4.07)" fill="#72a891"/>
          </g>
          <g id="Group_41" data-name="Group 41" transform="translate(90.599 100.895)">
            <path id="Path_95" data-name="Path 95" d="M50.723,176.533a3.593,3.593,0,1,1,5.028-.733A3.593,3.593,0,0,1,50.723,176.533Z" transform="translate(-49.276 -170.058)" fill="#4d4d4d"/>
            <path id="Path_96" data-name="Path 96" d="M52.454,176.5a2.334,2.334,0,1,1,3.267-.476A2.334,2.334,0,0,1,52.454,176.5Z" transform="translate(-50.255 -171.038)" fill="#333"/>
          </g>
        </g>
        <g transform="matrix(1, 0, 0, 1, 62.88, 5.24)" filter="url(#Path_97)">
          <path id="Path_97-2" data-name="Path 97" d="M62.9,178.081l1.106-1.483a6.162,6.162,0,0,0-1.258-8.62L36.794,148.635l.782-1.046,33.569,25.019a6.162,6.162,0,0,0,8.621-1.259l1.106-1.483a6.159,6.159,0,0,0,.43-6.694L3.821,105.423-96.758,30.458l-15.03,20.166L-14.945,122.8l2.79-3.743,10.362,7.723c-.545,5.139.921,11.348,8.047,16.661L9.6,145.939a6.08,6.08,0,0,0,.725.644L54.278,179.34A6.159,6.159,0,0,0,62.9,178.081Z" transform="translate(48.91 -13.33)" fill="#333" opacity="0.05"/>
        </g>
      </g>
    </g>
  </g>
</svg>
